<svg xmlns="http://www.w3.org/2000/svg" width="41.11mm" height="49.58mm" viewBox="0 0 116.52 140.54">
  <g id="Livello_2" data-name="Livello 2">
    <g id="testi">
      <g>
        <rect x="0.64" y="108.7" width="114.99" height="3.81" style="fill: #1f3543"/>
        <g>
          <path d="M14.78,124.6v0a1,1,0,0,0-1-.77h-.35a1,1,0,0,0-.95.65L8.82,134.82,5.1,124.45a1,1,0,0,0-1-.65H3.8a1,1,0,0,0-1,.77v0L0,139.06a1.07,1.07,0,0,0,.18.9,1,1,0,0,0,.81.36h.87a1,1,0,0,0,1-.82l1.5-8.88,3.26,9.26a1.05,1.05,0,0,0,.95.66H9a1.05,1.05,0,0,0,.95-.66l3.23-9.26,1.53,8.89,0,.06a1,1,0,0,0,1,.75h.87a1,1,0,0,0,.81-.36,1.07,1.07,0,0,0,.18-.9Z" style="fill: #1f3543"/>
          <path d="M30.23,124H21.75a1,1,0,0,0-1,1v14.25a1,1,0,0,0,1,1h8.48a1,1,0,0,0,1-1v-.62a1,1,0,0,0-1-1H23.62v-4.25h5.56a1,1,0,0,0,1-1v-.62a1,1,0,0,0-1-1H23.62v-4h6.61a1,1,0,0,0,1-1V125A1,1,0,0,0,30.23,124Z" style="fill: #1f3543"/>
          <path d="M39.94,124H35.12a1,1,0,0,0-1,1v14.25a1,1,0,0,0,1,1h4.82a8.16,8.16,0,1,0,0-16.31ZM37,126.72H39.6a5.44,5.44,0,1,1,0,10.87H37Z" style="fill: #1f3543"/>
          <path d="M59,123.8A8.28,8.28,0,0,0,53,126.25,8.39,8.39,0,1,0,59,123.8Zm0,14a5.62,5.62,0,1,1,5.62-5.6A5.61,5.61,0,0,1,59,137.79Z" style="fill: #1f3543"/>
          <path d="M78.13,123.8a8.28,8.28,0,0,0-5.92,2.45,8.39,8.39,0,1,0,5.92-2.45Zm0,14a5.62,5.62,0,1,1,5.62-5.6A5.61,5.61,0,0,1,78.13,137.79Z" style="fill: #1f3543"/>
          <path d="M98.27,124H89.56a1,1,0,0,0-1,1v.69a1,1,0,0,0,1,1h5.7l-7.36,12v.56a1,1,0,0,0,1,1h8.91a1,1,0,0,0,1-1v-.69a1,1,0,0,0-1-1h-6L99.3,125.5V125A1,1,0,0,0,98.27,124Z" style="fill: #1f3543"/>
          <path d="M116.43,138.89l-6.51-14.49v0a1,1,0,0,0-.92-.58h-.21a1,1,0,0,0-.92.58h0l-6.54,14.49a1,1,0,0,0,0,1,1,1,0,0,0,.88.46h.86a1,1,0,0,0,.93-.61l1.41-3.18h6.83l1.43,3.18a1,1,0,0,0,.93.61h.86a1,1,0,0,0,.88-.46A1,1,0,0,0,116.43,138.89Zm-5.3-4.93h-4.54l2.28-5.11c.36.82.73,1.64,1.08,2.45S110.74,133.07,111.13,134Z" style="fill: #1f3543"/>
        </g>
        <g>
          <path d="M45.81,82a5.27,5.27,0,1,1-5.26-5.27A5.26,5.26,0,0,1,45.81,82Z" style="fill: #1f3543"/>
          <path d="M69.2,91.81a5.27,5.27,0,1,1-5.27-5.27A5.27,5.27,0,0,1,69.2,91.81Z" style="fill: #1f3543"/>
          <path d="M93.21,85A5.27,5.27,0,1,1,88,79.77,5.26,5.26,0,0,1,93.21,85Z" style="fill: #1f3543"/>
          <path d="M58.06,0A57.54,57.54,0,0,0,.54,56h0v0h0A5.74,5.74,0,0,0,12,56h0V49.91a5.76,5.76,0,0,1,11.51,0V65.28a5.76,5.76,0,1,0,11.51,0V57.71a5.76,5.76,0,0,1,11.51.09V70.35a5.76,5.76,0,0,0,11.51,0V52.71a5.76,5.76,0,0,1,11.51,0v7.89h0V76.49a5.76,5.76,0,1,0,11.51,0V60.62h0a5.75,5.75,0,0,1,11.49,0h0V69a5.76,5.76,0,1,0,11.51,0V60.62h0V58.3a5.76,5.76,0,0,1,11.51-.16c0-.2,0-.39,0-.59A57.55,57.55,0,0,0,58.06,0Z" style="fill: #1f3543"/>
        </g>
      </g>
    </g>
  </g>
</svg>
